<?xml version="1.0" encoding="utf-8"?>
<!-- Generator: Adobe Illustrator 19.1.0, SVG Export Plug-In . SVG Version: 6.00 Build 0)  -->
<!DOCTYPE svg PUBLIC "-//W3C//DTD SVG 1.1//EN" "http://www.w3.org/Graphics/SVG/1.1/DTD/svg11.dtd">
<svg version="1.1" id="Layer_1" xmlns="http://www.w3.org/2000/svg" xmlns:xlink="http://www.w3.org/1999/xlink" x="0px" y="0px"
	 viewBox="0 0 42 42" enable-background="new 0 0 42 42" xml:space="preserve">
<path fill="#707070" d="M29.9,18.7c1-1.6,1.6-3.4,1.6-5.4C31.5,7.6,27,3,21.3,3S11,7.6,11,13.3c0,2.1,0.6,4,1.6,5.6
	C9.7,22,8,26.5,8,31.7v0.7l0.5,0.5c0.2,0.2,3.9,4.8,12.8,4.8c8.9,0,12.3-4.7,12.4-4.9l0.3-0.5v-0.6C34,26.1,32.7,21.7,29.9,18.7z
	 M21.3,7c3.4,0,6.3,2.8,6.3,6.3s-2.8,6.3-6.3,6.3c-3.5,0-6.3-2.8-6.3-6.3S17.9,7,21.3,7z M21.3,33.7c-5.3,0-8.2-1.9-9.2-2.8
	c0.1-2.5,0.8-6.2,3.4-9.1c1.6,1.1,3.6,1.8,5.8,1.8c2.2,0,4.3-0.7,5.9-1.9c1.8,2.2,2.8,5.3,2.9,9.3C29.2,31.8,26.6,33.7,21.3,33.7z"
	/>
</svg>
