<?xml version="1.0" encoding="utf-8"?>
<!-- Generator: Adobe Illustrator 19.1.0, SVG Export Plug-In . SVG Version: 6.00 Build 0)  -->
<!DOCTYPE svg PUBLIC "-//W3C//DTD SVG 1.1//EN" "http://www.w3.org/Graphics/SVG/1.1/DTD/svg11.dtd">
<svg version="1.1" id="Layer_1" xmlns="http://www.w3.org/2000/svg" xmlns:xlink="http://www.w3.org/1999/xlink" x="0px" y="0px"
	 viewBox="0 0 42 42" enable-background="new 0 0 42 42" xml:space="preserve">
<g>
	<g>
		<defs>
			<rect id="SVGID_1_" x="6" y="6" width="30" height="30"/>
		</defs>
		<clipPath id="SVGID_2_">
			<use xlink:href="#SVGID_1_"  overflow="visible"/>
		</clipPath>
	</g>
	<path fill="#717172" d="M20.9,8.8c4,0,4.4,0,6,0.1c1.5,0.1,2.2,0.3,2.8,0.5c0.7,0.3,1.2,0.6,1.7,1.1c0.5,0.5,0.8,1,1.1,1.7
		c0.2,0.5,0.4,1.3,0.5,2.8c0.1,1.6,0.1,2,0.1,6c0,4,0,4.4-0.1,6c-0.1,1.5-0.3,2.2-0.5,2.8c-0.3,0.7-0.6,1.2-1.1,1.7
		c-0.5,0.5-1,0.8-1.7,1.1c-0.5,0.2-1.3,0.4-2.8,0.5c-1.6,0.1-2,0.1-6,0.1c-4,0-4.4,0-6-0.1c-1.5-0.1-2.2-0.3-2.8-0.5
		c-0.7-0.3-1.2-0.6-1.7-1.1c-0.5-0.5-0.8-1-1.1-1.7c-0.2-0.5-0.4-1.3-0.5-2.8c-0.1-1.6-0.1-2-0.1-6c0-4,0-4.4,0.1-6
		c0.1-1.5,0.3-2.2,0.5-2.8c0.3-0.7,0.6-1.2,1.1-1.7c0.5-0.5,1-0.8,1.7-1.1c0.5-0.2,1.3-0.4,2.8-0.5C16.4,8.9,16.9,8.8,20.9,8.8
		 M20.9,6.2c-4,0-4.5,0-6.1,0.1c-1.6,0.1-2.7,0.3-3.6,0.7c-1,0.4-1.8,0.9-2.6,1.7c-0.8,0.8-1.3,1.7-1.7,2.6c-0.4,0.9-0.6,2-0.7,3.6
		C6,16.5,6,17,6,21c0,4,0,4.5,0.1,6.1c0.1,1.6,0.3,2.7,0.7,3.6c0.4,1,0.9,1.8,1.7,2.6c0.8,0.8,1.7,1.3,2.6,1.7
		c0.9,0.4,2,0.6,3.6,0.7c1.6,0.1,2.1,0.1,6.1,0.1c4,0,4.5,0,6.1-0.1c1.6-0.1,2.7-0.3,3.6-0.7c1-0.4,1.8-0.9,2.6-1.7
		c0.8-0.8,1.3-1.7,1.7-2.6c0.4-0.9,0.6-2,0.7-3.6c0.1-1.6,0.1-2.1,0.1-6.1c0-4,0-4.5-0.1-6.1c-0.1-1.6-0.3-2.7-0.7-3.6
		c-0.4-1-0.9-1.8-1.7-2.6c-0.8-0.8-1.7-1.3-2.6-1.7c-0.9-0.4-2-0.6-3.6-0.7C25.4,6.2,24.9,6.2,20.9,6.2"/>
	<path fill="#717172" d="M20.9,13.4c-4.2,0-7.6,3.4-7.6,7.6c0,4.2,3.4,7.6,7.6,7.6c4.2,0,7.6-3.4,7.6-7.6
		C28.5,16.8,25.1,13.4,20.9,13.4 M20.9,26c-2.7,0-5-2.2-5-5s2.2-5,5-5c2.7,0,5,2.2,5,5S23.6,26,20.9,26"/>
	<path fill="#717172" d="M30.6,13.1c0,1-0.8,1.8-1.8,1.8c-1,0-1.8-0.8-1.8-1.8c0-1,0.8-1.8,1.8-1.8C29.8,11.3,30.6,12.1,30.6,13.1"
		/>
</g>
</svg>
