<?xml version="1.0" encoding="utf-8"?>
<!-- Generator: Adobe Illustrator 19.1.0, SVG Export Plug-In . SVG Version: 6.00 Build 0)  -->
<!DOCTYPE svg PUBLIC "-//W3C//DTD SVG 1.1//EN" "http://www.w3.org/Graphics/SVG/1.1/DTD/svg11.dtd">
<svg version="1.1" id="Layer_1" xmlns="http://www.w3.org/2000/svg" xmlns:xlink="http://www.w3.org/1999/xlink" x="0px" y="0px"
	 viewBox="0 0 42 42" enable-background="new 0 0 42 42" xml:space="preserve">
<path fill="white" d="M25.2,2.7c-7.7,0-14,6.3-14,14c0,3.1,1,6,2.8,8.3L2.8,36.2L5.7,39l11.1-11.1c2.3,1.8,5.2,2.8,8.4,2.8
	c7.7,0,14-6.3,14-14S32.9,2.7,25.2,2.7z M25.2,26.7c-5.5,0-10-4.5-10-10c0-5.5,4.5-10,10-10c5.5,0,10,4.5,10,10
	C35.2,22.2,30.7,26.7,25.2,26.7z"/>
</svg>
