<?xml version="1.0" encoding="utf-8"?>
<!-- Generator: Adobe Illustrator 25.2.0, SVG Export Plug-In . SVG Version: 6.00 Build 0)  -->
<svg version="1.1" id="Layer_1" xmlns="http://www.w3.org/2000/svg" xmlns:xlink="http://www.w3.org/1999/xlink" x="0px" y="0px"
	 viewBox="0 0 26 24" style="enable-background:new 0 0 26 24;" xml:space="preserve">
<style type="text/css">
	.st0{fill-rule:evenodd;clip-rule:evenodd;fill:#303030;}
</style>
<desc>Created with Sketch.</desc>
<g id="Symbols">
	<g id="Icon_x2F_Cart" transform="translate(0.500000, 0.000000)">
		<g id="Group-3">
			<polygon id="Fill-1" class="st0" points="6.2,6.9 20.2,6.9 20.2,5.6 6.2,5.6 			"/>
			<polygon id="Fill-2" class="st0" points="0.5,0 0,1.2 4.3,3 7.5,14.7 21.7,14.7 24.9,5.6 20.2,5.6 20.2,6.9 23.1,6.9 20.8,13.5 
				8.5,13.5 5.3,2 			"/>
			<path id="Fill-3" class="st0" d="M9.1,20.5c-0.5,0-0.9,0.4-0.9,1s0.4,1,0.9,1c0.5,0,0.9-0.4,0.9-1S9.6,20.5,9.1,20.5 M9.1,23.7
				c-1.2,0-2.2-1-2.2-2.2s1-2.2,2.2-2.2c1.2,0,2.2,1,2.2,2.2S10.3,23.7,9.1,23.7"/>
			<path id="Fill-5" class="st0" d="M20.1,20.5c-0.5,0-0.9,0.4-0.9,1s0.4,1,0.9,1c0.5,0,0.9-0.4,0.9-1S20.7,20.5,20.1,20.5
				 M20.1,23.7c-1.2,0-2.2-1-2.2-2.2s1-2.2,2.2-2.2c1.2,0,2.2,1,2.2,2.2S21.3,23.7,20.1,23.7"/>
			<polygon id="Fill-7" class="st0" points="20.3,17.9 8.4,17.9 7.4,14.3 8.6,13.9 9.4,16.7 20.3,16.7 			"/>
		</g>
	</g>
</g>
</svg>
