<?xml version="1.0" encoding="utf-8"?>
<!-- Generator: Adobe Illustrator 19.1.0, SVG Export Plug-In . SVG Version: 6.00 Build 0)  -->
<!DOCTYPE svg PUBLIC "-//W3C//DTD SVG 1.1//EN" "http://www.w3.org/Graphics/SVG/1.1/DTD/svg11.dtd">
<svg version="1.1" id="Layer_1" xmlns="http://www.w3.org/2000/svg" xmlns:xlink="http://www.w3.org/1999/xlink" x="0px" y="0px"
	 viewBox="0 0 42 42" enable-background="new 0 0 42 42" xml:space="preserve">
<g>
	<g>
		<g>
			<path fill="#707070" d="M20.4,1.5C9.6,1.5,0.9,10.2,0.9,21c0,10.8,8.7,19.5,19.5,19.5c10.8,0,19.5-8.7,19.5-19.5
				C39.9,10.2,31.1,1.5,20.4,1.5z M20.3,36.3C11.8,36.3,5,29.5,5,21c0-8.4,6.9-15.3,15.3-15.3c8.4,0,15.3,6.9,15.3,15.3
				C35.6,29.5,28.7,36.3,20.3,36.3z"/>
		</g>
	</g>
	<polygon fill="#707070" points="17.7,30.7 10.9,23.9 13.2,21.6 17.6,25.9 27.9,14.1 30.3,16.3 	"/>
</g>
</svg>
