<?xml version="1.0" encoding="utf-8"?>
<!-- Generator: Adobe Illustrator 19.1.0, SVG Export Plug-In . SVG Version: 6.00 Build 0)  -->
<!DOCTYPE svg PUBLIC "-//W3C//DTD SVG 1.1//EN" "http://www.w3.org/Graphics/SVG/1.1/DTD/svg11.dtd">
<svg version="1.1" id="Layer_1" xmlns="http://www.w3.org/2000/svg" xmlns:xlink="http://www.w3.org/1999/xlink" x="0px" y="0px"
	 viewBox="0 0 42 42" enable-background="new 0 0 42 42" xml:space="preserve">
<path fill="#717172" d="M6.2,30c2.7,3,5.9,2.9,9.4,2.9c9.7,0,17.6-7.7,17.6-17.4c0-0.2,0-0.4,0-0.7c0.4-0.3,2.5-1.8,3.1-3
	c0,0-1.8,1.1-3.5,1.1c0,0,0,0,0,0c0,0,0-0.1,0-0.1c0.2-0.1,2.4-1.7,2.7-3.5c0,0-1.2,0.6-3,1.2c-0.3,0.1-0.6,0.2-0.9,0.3
	c-1.1-1.2-2.7-1.9-4.5-1.9c-3.4,0-6.2,2.7-6.2,6.1c0,0.5,0.1,0.9,0.2,1.4c-0.5,0-7.7-0.4-12.7-6.4c0,0-2.9,4,1.8,8.1
	c0,0-1.4-0.1-2.7-0.8c0,0-0.5,4.8,4.9,6.1c0,0-1,0.4-2.7,0.1c0,0,0.9,3.7,5.7,4.1C15.3,27.7,11.5,32,6.2,30L6.2,30z M6.2,30.4"/>
</svg>
